<svg xmlns="http://www.w3.org/2000/svg" viewBox="0 0 1200 220" preserveAspectRatio="xMidYMid slice" role="img" aria-label="Legacy Rust Servers">
  <defs>
    <linearGradient id="bg" x1="0%" y1="0%" x2="100%" y2="100%">
      <stop offset="0%" style="stop-color:#1a0a2e"/>
      <stop offset="45%" style="stop-color:#2d1b4e"/>
      <stop offset="100%" style="stop-color:#0f172a"/>
    </linearGradient>
    <linearGradient id="glow" x1="0%" y1="50%" x2="100%" y2="50%">
      <stop offset="0%" style="stop-color:#7c3aed;stop-opacity:0"/>
      <stop offset="50%" style="stop-color:#a855f7;stop-opacity:0.5"/>
      <stop offset="100%" style="stop-color:#7c3aed;stop-opacity:0"/>
    </linearGradient>
    <radialGradient id="orb" cx="50%" cy="40%" r="55%">
      <stop offset="0%" style="stop-color:#a855f7;stop-opacity:0.35"/>
      <stop offset="70%" style="stop-color:#5b21b6;stop-opacity:0.08"/>
      <stop offset="100%" style="stop-color:#1e1b4b;stop-opacity:0"/>
    </radialGradient>
    <filter id="soft" x="-20%" y="-20%" width="140%" height="140%">
      <feGaussianBlur in="SourceGraphic" stdDeviation="3"/>
    </filter>
  </defs>
  <rect width="1200" height="220" fill="url(#bg)"/>
  <rect width="1200" height="220" fill="url(#glow)"/>
  <ellipse cx="600" cy="100" rx="520" ry="140" fill="url(#orb)"/>
  <g opacity="0.14" stroke="#c084fc" stroke-width="1" fill="none">
    <path d="M0 44h1200M0 88h1200M0 132h1200M0 176h1200"/>
    <path d="M100 0v220M300 0v220M500 0v220M700 0v220M900 0v220M1100 0v220"/>
  </g>
  <path d="M0 200 Q300 175 600 188 T1200 196 L1200 220 L0 220 Z" fill="#4c1d95" opacity="0.45"/>
  <rect x="380" y="178" width="440" height="4" rx="2" fill="#a855f7" filter="url(#soft)" opacity="0.85"/>
</svg>
